<svg xmlns="http://www.w3.org/2000/svg" xmlns:xlink="http://www.w3.org/1999/xlink" width="1000" zoomAndPan="magnify" viewBox="0 0 750 225" height="300" preserveAspectRatio="xMidYMid meet" version="1.0"><defs><g/><clipPath id="b43991be14"><rect x="0" width="748" y="0" height="80"/></clipPath></defs><g transform="matrix(1, 0, 0, 1, 0, 72)"><g clip-path="url(#b43991be14)"><g fill="#ffffff" fill-opacity="1"><g transform="translate(0.223447, 63.079951)"><g><path d="M 3.859375 -18.125 L 3.859375 -23.25 L 23.609375 -36.015625 L 28.0625 -30.234375 L 13.421875 -20.65625 L 28.0625 -11.078125 L 23.609375 -5.359375 Z M 3.859375 -18.125 "/></g></g></g><g fill="#ffffff" fill-opacity="1"><g transform="translate(28.704262, 63.079951)"><g/></g></g><g fill="#ffffff" fill-opacity="1"><g transform="translate(52.84973, 63.079951)"><g><path d="M 6.140625 0 L 6.140625 -44.75 L 17.640625 -44.75 L 17.640625 0 Z M 6.140625 0 "/></g></g></g><g fill="#ffffff" fill-opacity="1"><g transform="translate(73.563049, 63.079951)"><g><path d="M 21.4375 0 L 21.4375 -36.375 L 0.421875 -36.375 L 0.421875 -44.75 L 53.953125 -44.75 L 53.953125 -36.375 L 32.9375 -36.375 L 32.9375 0 Z M 21.4375 0 "/></g></g></g><g fill="#ffffff" fill-opacity="1"><g transform="translate(124.924848, 63.079951)"><g><path d="M 7.53125 -33.78125 C 9.5 -33.664062 10.851562 -33.828125 11.59375 -34.265625 C 12.332031 -34.703125 12.703125 -35.601562 12.703125 -36.96875 C 10.492188 -36.96875 8.847656 -37.304688 7.765625 -37.984375 C 6.679688 -38.671875 6.140625 -39.878906 6.140625 -41.609375 C 6.140625 -43.378906 6.648438 -44.613281 7.671875 -45.3125 C 8.703125 -46.019531 10.257812 -46.375 12.34375 -46.375 C 14.46875 -46.375 16.070312 -45.898438 17.15625 -44.953125 C 18.238281 -44.003906 18.78125 -42.390625 18.78125 -40.109375 C 18.78125 -37.171875 18.304688 -34.898438 17.359375 -33.296875 C 16.421875 -31.691406 15.109375 -30.628906 13.421875 -30.109375 C 11.742188 -29.585938 9.78125 -29.507812 7.53125 -29.875 Z M 7.53125 -33.78125 "/></g></g></g><g fill="#ffffff" fill-opacity="1"><g transform="translate(146.842424, 63.079951)"><g><path d="M 29.078125 1.078125 C 22.898438 1.078125 17.875 0.347656 14 -1.109375 C 10.125 -2.578125 7.265625 -4.523438 5.421875 -6.953125 C 3.578125 -9.378906 2.570312 -12 2.40625 -14.8125 L 13.609375 -14.8125 C 13.734375 -13.320312 14.265625 -11.984375 15.203125 -10.796875 C 16.148438 -9.617188 17.726562 -8.675781 19.9375 -7.96875 C 22.144531 -7.269531 25.191406 -6.921875 29.078125 -6.921875 C 33.859375 -6.921875 37.3125 -7.398438 39.4375 -8.359375 C 41.570312 -9.328125 42.640625 -10.734375 42.640625 -12.578125 C 42.640625 -13.390625 42.476562 -14.09375 42.15625 -14.6875 C 41.832031 -15.289062 41.164062 -15.820312 40.15625 -16.28125 C 39.15625 -16.75 37.628906 -17.160156 35.578125 -17.515625 C 33.535156 -17.878906 30.789062 -18.242188 27.34375 -18.609375 C 22.476562 -19.085938 18.519531 -19.769531 15.46875 -20.65625 C 12.425781 -21.539062 10.097656 -22.59375 8.484375 -23.8125 C 6.878906 -25.039062 5.773438 -26.40625 5.171875 -27.90625 C 4.578125 -29.414062 4.28125 -31.035156 4.28125 -32.765625 C 4.28125 -34.441406 4.691406 -36.050781 5.515625 -37.59375 C 6.335938 -39.144531 7.660156 -40.53125 9.484375 -41.75 C 11.304688 -42.976562 13.710938 -43.941406 16.703125 -44.640625 C 19.703125 -45.347656 23.390625 -45.703125 27.765625 -45.703125 C 33.503906 -45.703125 38.171875 -45.019531 41.765625 -43.65625 C 45.359375 -42.289062 48.066406 -40.429688 49.890625 -38.078125 C 51.710938 -35.734375 52.765625 -33.035156 53.046875 -29.984375 L 42.328125 -29.984375 C 42.128906 -31.347656 41.578125 -32.613281 40.671875 -33.78125 C 39.773438 -34.945312 38.34375 -35.890625 36.375 -36.609375 C 34.40625 -37.335938 31.695312 -37.703125 28.25 -37.703125 C 25.15625 -37.703125 22.703125 -37.46875 20.890625 -37 C 19.085938 -36.539062 17.800781 -35.921875 17.03125 -35.140625 C 16.269531 -34.359375 15.890625 -33.484375 15.890625 -32.515625 C 15.890625 -31.867188 16.007812 -31.265625 16.25 -30.703125 C 16.5 -30.148438 17.035156 -29.617188 17.859375 -29.109375 C 18.679688 -28.609375 19.929688 -28.164062 21.609375 -27.78125 C 23.296875 -27.40625 25.566406 -27.078125 28.421875 -26.796875 C 33.035156 -26.359375 36.890625 -25.785156 39.984375 -25.078125 C 43.078125 -24.378906 45.566406 -23.585938 47.453125 -22.703125 C 49.335938 -21.816406 50.769531 -20.851562 51.75 -19.8125 C 52.738281 -18.769531 53.394531 -17.664062 53.71875 -16.5 C 54.039062 -15.332031 54.203125 -14.128906 54.203125 -12.890625 C 54.203125 -8.148438 52.039062 -4.632812 47.71875 -2.34375 C 43.40625 -0.0625 37.191406 1.078125 29.078125 1.078125 Z M 29.078125 1.078125 "/></g></g></g><g fill="#ffffff" fill-opacity="1"><g transform="translate(200.432128, 63.079951)"><g/></g></g><g fill="#ffffff" fill-opacity="1"><g transform="translate(224.577585, 63.079951)"><g><path d="M 6.140625 0 L 6.140625 -44.75 L 53.109375 -44.75 L 53.109375 -36.375 L 17.640625 -36.375 L 17.640625 -26.859375 L 50.578125 -26.859375 L 50.578125 -19.15625 L 17.640625 -19.15625 L 17.640625 -8.375 L 53.59375 -8.375 L 53.59375 0 Z M 6.140625 0 "/></g></g></g><g fill="#ffffff" fill-opacity="1"><g transform="translate(277.444715, 63.079951)"><g><path d="M 6.140625 0 L 6.140625 -44.75 L 35.953125 -44.75 C 40.804688 -44.75 45.019531 -44.164062 48.59375 -43 C 52.164062 -41.832031 55.125 -40.210938 57.46875 -38.140625 C 59.820312 -36.078125 61.582031 -33.703125 62.75 -31.015625 C 63.914062 -28.328125 64.5 -25.4375 64.5 -22.34375 C 64.5 -19.40625 63.957031 -16.59375 62.875 -13.90625 C 61.789062 -11.21875 60.09375 -8.828125 57.78125 -6.734375 C 55.46875 -4.648438 52.515625 -3.003906 48.921875 -1.796875 C 45.328125 -0.597656 41.003906 0 35.953125 0 Z M 17.640625 -8.375 L 33.84375 -8.375 C 37.695312 -8.375 41.046875 -8.863281 43.890625 -9.84375 C 46.742188 -10.832031 48.953125 -12.347656 50.515625 -14.390625 C 52.085938 -16.441406 52.875 -19.09375 52.875 -22.34375 C 52.875 -27.082031 51.195312 -30.601562 47.84375 -32.90625 C 44.488281 -35.21875 39.820312 -36.375 33.84375 -36.375 L 17.640625 -36.375 Z M 17.640625 -8.375 "/></g></g></g><g fill="#ffffff" fill-opacity="1"><g transform="translate(341.270644, 63.079951)"><g><path d="M 31.859375 1.078125 C 25.316406 1.078125 20.023438 0.253906 15.984375 -1.390625 C 11.953125 -3.035156 9.007812 -5.484375 7.15625 -8.734375 C 5.3125 -11.984375 4.390625 -16.015625 4.390625 -20.828125 L 4.390625 -44.75 L 15.953125 -44.75 L 15.953125 -20.953125 C 15.953125 -11.722656 21.273438 -7.109375 31.921875 -7.109375 C 42.515625 -7.109375 47.8125 -11.703125 47.8125 -20.890625 L 47.8125 -44.75 L 59.375 -44.75 L 59.375 -20.78125 C 59.375 -16.039062 58.457031 -12.046875 56.625 -8.796875 C 54.800781 -5.546875 51.882812 -3.085938 47.875 -1.421875 C 43.863281 0.242188 38.523438 1.078125 31.859375 1.078125 Z M 31.859375 1.078125 "/></g></g></g><g fill="#ffffff" fill-opacity="1"><g transform="translate(402.025687, 63.079951)"><g><path d="M 0.484375 0 L 23.84375 -44.75 L 39.140625 -44.75 L 62.6875 0 L 49.859375 0 L 45.109375 -9.875 L 18 -9.875 L 13.1875 0 Z M 21.671875 -17.53125 L 41.4375 -17.53125 L 32.09375 -36.796875 L 31.609375 -37.8125 L 31.5 -37.8125 L 31.078125 -36.796875 Z M 21.671875 -17.53125 "/></g></g></g><g fill="#ffffff" fill-opacity="1"><g transform="translate(462.118382, 63.079951)"><g><path d="M 6.140625 0 L 6.140625 -44.75 L 37.03125 -44.75 C 42.175781 -44.75 46.300781 -44.175781 49.40625 -43.03125 C 52.519531 -41.882812 54.78125 -40.328125 56.1875 -38.359375 C 57.59375 -36.390625 58.296875 -34.117188 58.296875 -31.546875 C 58.296875 -28.296875 57.25 -25.65625 55.15625 -23.625 C 53.070312 -21.601562 50.242188 -20.253906 46.671875 -19.578125 L 46.671875 -19.515625 C 48.359375 -19.148438 49.765625 -18.65625 50.890625 -18.03125 C 52.015625 -17.414062 52.945312 -16.503906 53.6875 -15.296875 C 54.425781 -14.085938 55.035156 -12.378906 55.515625 -10.171875 L 56.25 -7.171875 C 56.6875 -5.359375 57.078125 -3.945312 57.421875 -2.9375 C 57.765625 -1.9375 58.175781 -0.957031 58.65625 0 L 46.734375 0 C 46.453125 -0.5625 46.160156 -1.285156 45.859375 -2.171875 C 45.554688 -3.054688 45.1875 -4.476562 44.75 -6.4375 L 43.953125 -9.75 C 43.710938 -10.914062 43.210938 -11.867188 42.453125 -12.609375 C 41.691406 -13.359375 40.535156 -13.898438 38.984375 -14.234375 C 37.441406 -14.578125 35.328125 -14.75 32.640625 -14.75 L 17.640625 -14.75 L 17.640625 0 Z M 17.640625 -22.765625 L 36.125 -22.765625 C 39.457031 -22.765625 42.054688 -23.351562 43.921875 -24.53125 C 45.796875 -25.71875 46.734375 -27.535156 46.734375 -29.984375 C 46.734375 -31.953125 45.957031 -33.507812 44.40625 -34.65625 C 42.863281 -35.800781 40.328125 -36.375 36.796875 -36.375 L 17.640625 -36.375 Z M 17.640625 -22.765625 "/></g></g></g><g fill="#ffffff" fill-opacity="1"><g transform="translate(520.645566, 63.079951)"><g><path d="M 6.140625 0 L 6.140625 -44.75 L 35.953125 -44.75 C 40.804688 -44.75 45.019531 -44.164062 48.59375 -43 C 52.164062 -41.832031 55.125 -40.210938 57.46875 -38.140625 C 59.820312 -36.078125 61.582031 -33.703125 62.75 -31.015625 C 63.914062 -28.328125 64.5 -25.4375 64.5 -22.34375 C 64.5 -19.40625 63.957031 -16.59375 62.875 -13.90625 C 61.789062 -11.21875 60.09375 -8.828125 57.78125 -6.734375 C 55.46875 -4.648438 52.515625 -3.003906 48.921875 -1.796875 C 45.328125 -0.597656 41.003906 0 35.953125 0 Z M 17.640625 -8.375 L 33.84375 -8.375 C 37.695312 -8.375 41.046875 -8.863281 43.890625 -9.84375 C 46.742188 -10.832031 48.953125 -12.347656 50.515625 -14.390625 C 52.085938 -16.441406 52.875 -19.09375 52.875 -22.34375 C 52.875 -27.082031 51.195312 -30.601562 47.84375 -32.90625 C 44.488281 -35.21875 39.820312 -36.375 33.84375 -36.375 L 17.640625 -36.375 Z M 17.640625 -8.375 "/></g></g></g><g fill="#ffffff" fill-opacity="1"><g transform="translate(584.471495, 63.079951)"><g><path d="M 33.84375 1.078125 C 27.375 1.078125 21.78125 0.175781 17.0625 -1.625 C 12.351562 -3.425781 8.722656 -6.070312 6.171875 -9.5625 C 3.617188 -13.0625 2.34375 -17.320312 2.34375 -22.34375 C 2.34375 -27.363281 3.617188 -31.609375 6.171875 -35.078125 C 8.722656 -38.546875 12.351562 -41.179688 17.0625 -42.984375 C 21.78125 -44.796875 27.375 -45.703125 33.84375 -45.703125 C 40.300781 -45.703125 45.878906 -44.796875 50.578125 -42.984375 C 55.273438 -41.179688 58.898438 -38.546875 61.453125 -35.078125 C 64.003906 -31.609375 65.28125 -27.363281 65.28125 -22.34375 C 65.28125 -17.320312 64.003906 -13.0625 61.453125 -9.5625 C 58.898438 -6.070312 55.273438 -3.425781 50.578125 -1.625 C 45.878906 0.175781 40.300781 1.078125 33.84375 1.078125 Z M 13.96875 -22.34375 C 13.96875 -19.09375 14.800781 -16.332031 16.46875 -14.0625 C 18.132812 -11.789062 20.460938 -10.0625 23.453125 -8.875 C 26.441406 -7.695312 29.90625 -7.109375 33.84375 -7.109375 C 37.78125 -7.109375 41.234375 -7.707031 44.203125 -8.90625 C 47.171875 -10.113281 49.488281 -11.859375 51.15625 -14.140625 C 52.820312 -16.429688 53.65625 -19.164062 53.65625 -22.34375 C 53.65625 -25.550781 52.820312 -28.289062 51.15625 -30.5625 C 49.488281 -32.832031 47.171875 -34.566406 44.203125 -35.765625 C 41.234375 -36.972656 37.78125 -37.578125 33.84375 -37.578125 C 29.90625 -37.578125 26.441406 -36.992188 23.453125 -35.828125 C 20.460938 -34.660156 18.132812 -32.941406 16.46875 -30.671875 C 14.800781 -28.410156 13.96875 -25.632812 13.96875 -22.34375 Z M 13.96875 -22.34375 "/></g></g></g><g fill="#ffffff" fill-opacity="1"><g transform="translate(649.080179, 63.079951)"><g/></g></g><g fill="#ffffff" fill-opacity="1"><g transform="translate(673.225636, 63.079951)"><g><path d="M 47.640625 -45.640625 L 13.375 5.421875 L 0.484375 5.421875 L 34.6875 -45.640625 Z M 47.640625 -45.640625 "/></g></g></g><g fill="#ffffff" fill-opacity="1"><g transform="translate(718.265033, 63.079951)"><g><path d="M 27.640625 -18.125 L 7.890625 -5.359375 L 3.4375 -11.078125 L 18.0625 -20.65625 L 3.4375 -30.234375 L 7.890625 -36.015625 L 27.640625 -23.25 Z M 27.640625 -18.125 "/></g></g></g></g></g></svg>